<?xml version="1.0" standalone="no"?>
<!DOCTYPE svg PUBLIC "-//W3C//DTD SVG 20010904//EN"
 "http://www.w3.org/TR/2001/REC-SVG-20010904/DTD/svg10.dtd">
<svg version="1.0" xmlns="http://www.w3.org/2000/svg"
 width="512.000000pt" height="512.000000pt" viewBox="0 0 512.000000 512.000000"
 preserveAspectRatio="xMidYMid meet">
<metadata>
Created by potrace 1.14, written by Peter Selinger 2001-2017
</metadata>
<g transform="translate(0.000000,512.000000) scale(0.100000,-0.100000)"
fill="#000000" stroke="none">
<path d="M1769 5116 c-2 -2 -31 -6 -65 -9 -173 -17 -428 -90 -601 -173 -522
-250 -900 -710 -1044 -1269 -56 -216 -53 -109 -56 -1958 l-4 -1707 1673 1
c920 0 1696 4 1723 9 28 4 73 11 100 14 140 18 360 86 520 160 415 193 774
566 950 986 32 76 82 217 89 251 3 13 14 65 25 114 10 50 23 110 27 135 4 25
9 811 11 1748 l4 1702 -1674 0 c-921 0 -1676 -2 -1678 -4z"/>
</g>
</svg>
